<svg width="313" height="207" viewBox="0 0 313 207" fill="none" xmlns="http://www.w3.org/2000/svg">
<path d="M289.022 90.4968L257.181 58.6553C262.595 53.241 269.17 43.9593 276.389 37.9004H179.318C187.955 43.3147 196.076 55.1747 202.393 61.6203L170.551 93.4618L138.71 61.6203C145.027 55.3036 153.148 43.4436 161.785 37.9004H43.7014C42.2834 37.9004 40.9942 38.1582 39.7051 38.416C54.1433 41.1232 64.972 53.7567 64.972 68.9683C64.972 86.1137 51.0494 100.036 33.904 100.036C31.9703 100.036 30.0367 99.9074 28.2319 99.5206V107.384C30.1656 106.74 31.9703 106.353 33.904 106.353C49.3736 106.353 64.3274 129.944 75.285 140.902L38.0292 178.157C39.834 178.802 41.6388 179.189 43.7014 179.189H196.979C205.1 170.165 215.413 155.34 226.242 155.34C237.07 155.34 247.383 170.036 255.505 179.189H289.538C298.046 179.189 305.007 172.227 305.007 163.719V74.6405L289.022 90.4968ZM226.242 150.441C213.093 150.441 202.393 139.741 202.393 126.592C202.393 113.443 213.093 102.743 226.242 102.743C239.391 102.743 250.091 113.443 250.091 126.592C250.091 139.741 239.52 150.441 226.242 150.441Z" fill="url(#paint0_linear_11_548)"/>
<path d="M34.8064 94.3642C49.1881 94.3642 60.8468 82.7055 60.8468 68.3238C60.8468 53.9421 49.1881 42.2834 34.8064 42.2834C20.4247 42.2834 8.76605 53.9421 8.76605 68.3238C8.76605 82.7055 20.4247 94.3642 34.8064 94.3642Z" fill="url(#paint1_linear_11_548)"/>
<path d="M41.8775 168.508C37.9722 172.413 31.6406 172.413 27.7354 168.508L7.07106 147.844C3.16582 143.939 3.09078 137.533 6.66245 133.321C14.8861 123.622 24.6906 111.638 34.8064 111.638C44.9314 111.638 54.8224 123.644 63.0248 133.347C66.5724 137.544 66.477 143.909 62.5911 147.794L41.8775 168.508Z" fill="url(#paint2_linear_11_548)"/>
<path d="M226.242 142.32C234.928 142.32 241.969 135.278 241.969 126.592C241.969 117.906 234.928 110.865 226.242 110.865C217.556 110.865 210.514 117.906 210.514 126.592C210.514 135.278 217.556 142.32 226.242 142.32Z" fill="url(#paint3_linear_11_548)"/>
<path d="M233.313 199.06C229.408 202.966 223.076 202.966 219.171 199.06L207.53 187.42C203.625 183.515 203.491 177.058 207.072 172.853C212.785 166.142 219.417 158.821 226.242 158.821C233.066 158.821 239.698 166.142 245.412 172.853C248.992 177.058 248.858 183.515 244.953 187.42L233.313 199.06Z" fill="url(#paint4_linear_11_548)"/>
<path d="M288.893 32.2282C297.793 32.2282 305.007 25.0136 305.007 16.1141C305.007 7.21452 297.793 0 288.893 0C279.994 0 272.779 7.21452 272.779 16.1141C272.779 25.0136 279.994 32.2282 288.893 32.2282Z" fill="url(#paint5_linear_11_548)"/>
<path d="M295.964 75.4331C292.059 79.3383 285.727 79.3383 281.822 75.4331L271.858 65.4686C267.952 61.5633 267.8 55.0882 271.393 50.8943C276.634 44.7785 282.703 38.2871 288.893 38.2871C295.104 38.2871 301.132 44.7608 306.389 50.8984C309.981 55.0932 309.834 61.5633 305.929 65.4686L295.964 75.4331Z" fill="url(#paint6_linear_11_548)"/>
<path d="M170.551 34.8063C179.522 34.8063 186.794 27.5341 186.794 18.5633C186.794 9.59255 179.522 2.32031 170.551 2.32031C161.581 2.32031 154.308 9.59255 154.308 18.5633C154.308 27.5341 161.581 34.8063 170.551 34.8063Z" fill="url(#paint7_linear_11_548)"/>
<path d="M177.623 79.4293C173.717 83.3345 167.386 83.3345 163.48 79.4293L152.485 68.4334C148.579 64.5282 148.441 58.0673 152.024 53.864C157.568 47.3588 163.965 40.3496 170.552 40.3496C177.138 40.3496 183.535 47.3588 189.079 53.864C192.662 58.0673 192.524 64.5282 188.618 68.4334L177.623 79.4293Z" fill="url(#paint8_linear_11_548)"/>
<defs>
<linearGradient id="paint0_linear_11_548" x1="28.2851" y1="108.518" x2="304.96" y2="108.518" gradientUnits="userSpaceOnUse">
<stop stop-color="#595CA9"/>
<stop offset="0.5503" stop-color="#58C9E6"/>
<stop offset="1" stop-color="white"/>
</linearGradient>
<linearGradient id="paint1_linear_11_548" x1="8.79764" y1="68.3585" x2="60.8482" y2="68.3585" gradientUnits="userSpaceOnUse">
<stop stop-color="#595CA9"/>
<stop offset="1" stop-color="#3C334E"/>
</linearGradient>
<linearGradient id="paint2_linear_11_548" x1="0" y1="143.577" x2="69.6458" y2="143.577" gradientUnits="userSpaceOnUse">
<stop stop-color="#595CA9"/>
<stop offset="1" stop-color="#3C334E"/>
</linearGradient>
<linearGradient id="paint3_linear_11_548" x1="210.554" y1="126.579" x2="242.019" y2="126.579" gradientUnits="userSpaceOnUse">
<stop stop-color="#595CA9"/>
<stop offset="1" stop-color="#3C334E"/>
</linearGradient>
<linearGradient id="paint4_linear_11_548" x1="200.479" y1="182.465" x2="252.094" y2="182.465" gradientUnits="userSpaceOnUse">
<stop stop-color="#595CA9"/>
<stop offset="1" stop-color="#3C334E"/>
</linearGradient>
<linearGradient id="paint5_linear_11_548" x1="272.811" y1="16.0748" x2="304.96" y2="16.0748" gradientUnits="userSpaceOnUse">
<stop stop-color="#595CA9"/>
<stop offset="1" stop-color="#3C334E"/>
</linearGradient>
<linearGradient id="paint6_linear_11_548" x1="264.839" y1="60.4313" x2="312.932" y2="60.4313" gradientUnits="userSpaceOnUse">
<stop stop-color="#595CA9"/>
<stop offset="1" stop-color="#3C334E"/>
</linearGradient>
<linearGradient id="paint7_linear_11_548" x1="154.31" y1="18.5279" x2="186.898" y2="18.5279" gradientUnits="userSpaceOnUse">
<stop stop-color="#595CA9"/>
<stop offset="1" stop-color="#3C334E"/>
</linearGradient>
<linearGradient id="paint8_linear_11_548" x1="145.506" y1="63.4482" x2="195.702" y2="63.4482" gradientUnits="userSpaceOnUse">
<stop stop-color="#595CA9"/>
<stop offset="1" stop-color="#3C334E"/>
</linearGradient>
</defs>
</svg>
