<svg width="172" height="187" viewBox="0 0 172 187" fill="none" xmlns="http://www.w3.org/2000/svg">
<path d="M8.00003 78.6146V8.17139H67.7394" stroke="#595CA9" stroke-width="16" stroke-linecap="round" stroke-linejoin="round"/>
<path d="M8.00002 108.557L8.00003 179L67.7394 179" stroke="#595CA9" stroke-width="16" stroke-linecap="round" stroke-linejoin="round"/>
<path d="M163.207 78.6146V8.17139H103.467" stroke="#595CA9" stroke-width="16" stroke-linecap="round" stroke-linejoin="round"/>
<path d="M163.207 108.557L163.207 179L103.467 179" stroke="#595CA9" stroke-width="16" stroke-linecap="round" stroke-linejoin="round"/>
<path d="M84.6215 60.135C72.73 59.9935 63.9529 65.6561 57.0162 74.8578C55.3175 77.2644 53.7603 79.8126 52.203 82.3608C48.8055 87.8818 44.5585 92.5535 39.0375 95.951C36.4893 97.5082 33.658 96.5173 33.2333 93.686C32.9502 92.1288 33.5164 90.8547 34.9321 90.0053C40.0284 86.8909 43.7091 82.5023 46.8236 77.406C50.6458 70.894 55.3175 64.9482 61.4048 60.2766C77.8263 47.9604 106.564 50.367 120.154 71.8849C124.968 79.5295 126.808 87.7402 125.392 96.6589C124.543 101.897 123.977 107.135 123.127 112.514C122.419 117.044 123.693 120.867 126.242 124.547C127.657 126.388 129.073 128.086 130.772 129.644C132.754 131.484 133.037 133.607 131.48 135.306C129.922 137.005 127.799 136.863 125.817 135.023C123.552 132.758 121.428 130.351 119.588 127.803C115.483 121.857 115.058 115.345 116.191 108.55C117.04 103.737 117.606 99.0655 118.314 94.2522C119.588 86.3246 116.898 79.5295 112.085 73.3006C105.148 64.382 95.8051 60.135 84.6215 60.135Z" fill="#58C9E6"/>
<path d="M101.751 96.942C101.61 103.029 99.0614 108.267 95.9469 113.364C91.5584 120.3 86.0374 126.246 80.0916 131.909C72.5887 139.27 64.5195 145.924 56.0255 152.011C55.0346 152.719 54.0436 153.285 52.7695 153.143C51.2123 152.86 50.2214 152.152 49.6551 150.595C49.2304 149.038 49.6551 147.481 51.3539 146.348C55.884 143.092 60.2725 139.695 64.3779 136.014C73.2965 128.37 81.932 120.442 88.7271 110.674C91.2753 107.135 93.3988 103.312 94.1066 98.924C95.0975 93.4029 91.5584 87.0325 86.6036 85.8999C83.0645 85.0506 79.9501 86.3246 77.4019 88.7313C75.9862 90.0053 74.9953 91.5626 74.2875 93.2613C69.4742 104.587 61.6882 113.647 51.7786 120.867C47.5316 123.839 43.2847 126.954 39.1793 130.068C37.0558 131.626 34.9323 131.342 33.6582 129.644C32.2426 127.803 32.8088 125.68 34.9323 124.123C39.3208 120.867 43.7094 117.752 48.0979 114.496C56.8749 108.126 63.5285 99.9149 67.917 90.0053C70.1821 84.909 73.8628 81.0867 79.3838 79.2464C88.0193 76.4151 96.6548 80.5205 100.194 89.2975C101.043 91.8457 101.61 94.3939 101.751 96.942Z" fill="#58C9E6"/>
<path d="M102.742 118.885C102.742 113.081 104.016 107.984 105.007 102.888C105.856 97.9331 106.564 93.1198 105.432 88.0235C102.884 77.6892 87.5945 66.7887 73.0133 76.132C67.9169 79.388 64.2362 84.2012 61.8296 89.7223C57.0164 100.764 48.0978 107.701 38.4714 114.072C36.631 115.204 34.5075 114.638 33.5166 112.939C32.384 111.099 32.9503 109.117 34.9322 107.843C40.1701 104.445 44.9834 100.764 49.2303 96.0927C51.4954 93.5445 53.4773 90.7132 54.8929 87.5988C58.432 79.6711 63.5284 73.0176 71.3145 68.7706C89.4348 59.0026 108.829 71.3188 112.652 86.1831C114.067 91.5626 113.642 97.0837 112.652 102.463C111.944 106.993 110.811 111.382 110.386 115.912C109.82 121.433 111.094 126.671 113.642 131.626C115.624 135.448 118.88 137.571 122.844 138.845C124.685 139.412 125.676 140.969 125.392 142.668C125.251 144.366 123.977 145.641 122.278 145.924C121.429 146.065 120.721 145.782 120.013 145.499C111.661 142.668 106.847 136.58 104.441 128.37C103.308 125.255 102.6 121.858 102.742 118.885Z" fill="#58C9E6"/>
<path d="M89.435 40.1746C99.7693 40.1746 112.369 45.9787 123.128 55.8883C126.1 58.578 128.79 61.5509 131.197 64.8069C132.754 66.9304 132.612 69.1954 130.772 70.4695C128.932 71.7436 126.95 71.3189 125.251 69.1954C117.323 58.8612 107.555 51.0751 94.5314 48.5269C75.9863 44.9878 60.2726 49.9426 48.3811 65.2316C45.8329 68.6292 43.2847 72.0267 41.0197 75.7074C39.8872 77.5478 37.7637 78.114 36.0649 77.1231C34.3661 76.1321 33.6583 74.0087 34.7908 72.1683C40.0287 63.6744 45.8329 55.6052 54.0437 49.5179C63.387 42.8643 73.8628 40.1746 89.435 40.1746Z" fill="#58C9E6"/>
<path d="M123.835 48.8097C122.844 48.8097 122.136 48.385 121.287 47.8188C108.263 37.3429 93.2571 33.5207 76.9771 35.5026C64.6609 36.9183 54.0435 41.873 45.6912 51.3579C44.2755 53.0567 42.152 53.3398 40.4533 51.9242C38.896 50.6501 38.6129 48.385 40.1701 46.5447C46.399 39.0417 54.3267 33.8038 63.67 30.9725C85.7541 24.1774 106.281 27.4334 124.968 41.4483C125.534 41.873 126.1 42.2977 126.525 42.7224C127.657 43.8549 127.941 45.2706 127.233 46.6863C126.666 48.1019 125.534 48.8097 123.835 48.8097Z" fill="#58C9E6"/>
<path d="M39.3209 140.969C39.3209 139.27 40.1703 138.279 41.4443 137.43C50.0798 131.342 58.149 124.689 65.5104 117.044C71.7393 110.532 77.5435 103.454 81.5073 95.1017C82.3567 93.1197 84.3386 92.4119 86.1789 93.1197C88.0193 93.8276 88.8687 95.951 88.0193 98.0745C85.8958 103.029 82.9229 107.559 79.6669 111.806C70.0405 124.264 58.149 134.457 45.2666 143.659C43.9925 144.508 42.7184 144.649 41.3028 143.942C39.8871 143.375 39.3209 142.243 39.3209 140.969Z" fill="#58C9E6"/>
<path d="M129.781 98.7823C129.781 92.5534 129.215 86.4661 126.808 80.6619C125.959 78.68 126.808 76.6981 128.649 75.8487C130.489 74.9993 132.613 75.8487 133.462 77.8306C135.444 82.2192 136.293 87.0324 136.718 91.8456C137.567 100.906 136.576 109.966 134.736 118.885C134.17 121.291 132.329 122.707 130.347 122.141C128.224 121.574 127.091 119.734 127.658 117.327C128.932 111.24 129.923 105.153 129.781 98.7823Z" fill="#58C9E6"/>
<path d="M80.0917 140.827C84.0555 140.969 87.3115 142.809 89.7181 146.065C91.5585 148.613 92.8326 151.445 93.6819 154.559C94.2482 156.541 93.1157 158.381 91.4169 158.947C89.435 159.514 87.5946 158.664 86.8868 156.682C86.179 154.842 85.7543 153.143 84.7633 151.445C82.4983 147.764 80.0917 147.198 76.5526 149.746C74.2875 151.303 72.4472 153.143 70.7484 155.267C69.1912 156.966 67.0677 157.249 65.3689 155.975C63.6701 154.559 63.6701 152.435 65.2273 150.454C67.7755 147.481 70.7484 144.649 74.1459 142.667C75.8447 141.535 77.6851 140.827 80.0917 140.827Z" fill="#58C9E6"/>
<path d="M90.2843 132.333C90.2843 129.36 90.9921 126.387 92.2662 123.698C93.3987 121.433 95.3807 120.583 97.3626 121.574C99.3445 122.565 99.9107 124.547 98.7782 126.812C96.7963 131.059 97.221 135.164 99.3445 139.27C101.185 142.809 104.016 145.499 107.131 147.905C108.405 148.896 109.112 150.17 108.829 151.728C108.405 154.134 105.573 155.55 103.591 154.276C96.0885 148.896 90.5674 142.243 90.2843 132.333Z" fill="#58C9E6"/>
</svg>
